<svg width="500" height="500" viewBox="0 0 500 500" fill="none" xmlns="http://www.w3.org/2000/svg">
<path d="M0 250C0 111.929 111.929 0 250 0V0C388.071 0 500 111.929 500 250V250C500 388.071 388.071 500 250 500V500C111.929 500 0 388.071 0 250V250Z" fill="white"/>
<path d="M119.133 311.93C111.646 311.93 105.884 310.986 101.848 309.098C97.8763 307.21 94.7839 305.712 92.5703 304.605C90.7474 303.629 89.25 302.783 88.0781 302.066C86.9062 301.35 85.7669 300.992 84.6602 300.992C84.2044 300.992 83.7161 301.122 83.1953 301.383C82.6745 301.578 82.1536 302.001 81.6328 302.652C80.4609 304.085 79.2565 305.126 78.0195 305.777C76.7826 306.363 75.6758 306.656 74.6992 306.656C73.4622 306.656 72.4531 306.233 71.6719 305.387C70.9557 304.475 70.6302 303.336 70.6953 301.969C70.8255 300.667 70.8906 299.332 70.8906 297.965C70.8906 296.598 70.8906 295.23 70.8906 293.863C70.8906 287.418 70.5326 281.461 69.8164 275.992C69.1003 270.523 68.7422 266.259 68.7422 263.199C68.7422 261.507 69.2305 260.27 70.207 259.488C71.2487 258.642 72.3555 258.219 73.5273 258.219C76.3268 258.219 78.0521 259.586 78.7031 262.32C79.0938 263.948 79.7448 266.292 80.6562 269.352C81.6328 272.346 83.4232 276.643 86.0273 282.242C88.3711 287.19 91.3333 291.227 94.9141 294.352C98.5599 297.411 102.368 299.658 106.34 301.09C110.311 302.522 114.022 303.238 117.473 303.238C121.444 303.238 125.285 302.62 128.996 301.383C132.707 300.146 135.767 297.835 138.176 294.449C140.65 291.064 141.887 286.181 141.887 279.801C141.887 274.983 140.389 270.686 137.395 266.91C134.465 263.069 130.624 259.586 125.871 256.461C121.184 253.336 116.236 250.471 111.027 247.867C106.535 245.589 102.076 243.147 97.6484 240.543C93.2865 237.874 89.2826 234.879 85.6367 231.559C82.056 228.173 79.1589 224.299 76.9453 219.938C74.7318 215.51 73.5599 210.4 73.4297 204.605C73.2344 197.9 74.3737 192.203 76.8477 187.516C79.3216 182.763 82.5768 178.922 86.6133 175.992C90.6497 173.062 95.0768 170.914 99.8945 169.547C104.712 168.18 109.367 167.496 113.859 167.496C119.068 167.496 123.397 167.919 126.848 168.766C130.363 169.547 133.163 170.361 135.246 171.207C137.395 172.053 138.892 172.477 139.738 172.477C141.301 172.477 142.375 172.184 142.961 171.598C143.612 171.012 144.393 170.426 145.305 169.84C146.021 169.384 146.9 169.156 147.941 169.156C149.243 169.156 150.448 169.547 151.555 170.328C152.727 171.044 153.312 171.891 153.312 172.867C153.312 176.839 153.508 180.68 153.898 184.391C154.354 188.036 154.777 191.454 155.168 194.645C155.624 197.835 155.852 200.667 155.852 203.141C155.852 205.159 155.331 206.591 154.289 207.438C153.247 208.219 152.076 208.609 150.773 208.609C149.797 208.609 148.853 208.382 147.941 207.926C147.095 207.47 146.607 206.949 146.477 206.363C145.76 202.132 144.686 198.355 143.254 195.035C141.822 191.715 140.096 188.818 138.078 186.344C136.125 183.87 133.944 181.819 131.535 180.191C129.126 178.499 126.555 177.262 123.82 176.48C121.151 175.634 118.384 175.211 115.52 175.211C111.027 175.211 107.023 175.96 103.508 177.457C99.9922 178.954 97.2253 181.428 95.207 184.879C93.2539 188.264 92.2773 192.887 92.2773 198.746C92.2773 202.913 93.7747 206.786 96.7695 210.367C99.8294 213.883 103.703 217.203 108.391 220.328C113.143 223.453 118.026 226.48 123.039 229.41C127.271 231.884 131.633 234.521 136.125 237.32C140.682 240.055 144.914 243.147 148.82 246.598C152.727 249.983 155.884 253.824 158.293 258.121C160.767 262.418 162.004 267.301 162.004 272.77C162.004 281.233 160.083 288.395 156.242 294.254C152.401 300.048 147.225 304.443 140.715 307.438C134.27 310.432 127.076 311.93 119.133 311.93ZM183 309C181.893 309 181.047 308.349 180.461 307.047C179.94 305.745 179.68 304.736 179.68 304.02C179.68 301.871 180.754 300.667 182.902 300.406C186.027 300.146 189.152 299.592 192.277 298.746C195.467 297.835 197.062 296.305 197.062 294.156L197.16 188.492C197.16 185.693 196.411 183.674 194.914 182.438C193.417 181.201 191.594 180.387 189.445 179.996C187.362 179.54 185.311 179.215 183.293 179.02C181.926 178.889 180.982 178.629 180.461 178.238C180.005 177.783 179.777 176.839 179.777 175.406C179.777 174.69 180.038 173.681 180.559 172.379C181.145 171.077 181.991 170.426 183.098 170.426C187.004 170.426 190.357 170.426 193.156 170.426C195.956 170.361 198.658 170.328 201.262 170.328C206.73 170.328 211.06 170.263 214.25 170.133C217.44 170.003 220.565 169.872 223.625 169.742C226.685 169.547 230.721 169.482 235.734 169.547C244.914 169.612 253.247 170.849 260.734 173.258C268.221 175.602 274.146 179.443 278.508 184.781C282.935 190.12 285.148 197.346 285.148 206.461C285.148 213.036 283.977 218.863 281.633 223.941C279.354 228.954 275.871 233.219 271.184 236.734C266.561 240.185 260.734 242.854 253.703 244.742C260.148 245.393 265.194 247.216 268.84 250.211C272.486 253.141 275.383 256.786 277.531 261.148C279.68 265.445 281.665 270.035 283.488 274.918C285.311 279.736 287.622 284.391 290.422 288.883C292.635 293.115 295.044 296.012 297.648 297.574C300.253 299.137 302.759 300.048 305.168 300.309C307.512 300.569 308.684 301.969 308.684 304.508C308.684 305.224 308.391 306.168 307.805 307.34C307.284 308.447 306.47 309 305.363 309H279.289C276.424 309 273.951 307.535 271.867 304.605C269.849 301.676 267.993 297.9 266.301 293.277C264.608 288.59 262.85 283.674 261.027 278.531C259.27 273.323 257.219 268.408 254.875 263.785C252.596 259.098 249.797 255.289 246.477 252.359C243.156 249.43 239.087 247.965 234.27 247.965H216.887V290.934C216.887 293.733 217.798 295.784 219.621 297.086C221.444 298.323 223.658 299.137 226.262 299.527C228.866 299.918 231.34 300.211 233.684 300.406C235.051 300.536 235.962 300.797 236.418 301.188C236.939 301.578 237.199 302.522 237.199 304.02C237.199 304.736 236.906 305.745 236.32 307.047C235.799 308.349 234.986 309 233.879 309H183ZM216.984 239.566H233.391C238.794 239.566 243.807 238.72 248.43 237.027C253.052 235.335 256.796 232.307 259.66 227.945C262.525 223.583 263.957 217.431 263.957 209.488C263.957 201.546 262.525 195.361 259.66 190.934C256.796 186.507 252.889 183.414 247.941 181.656C242.993 179.833 237.395 178.922 231.145 178.922H217.082L216.984 239.566ZM320.5 309C319.393 309 318.547 308.349 317.961 307.047C317.44 305.745 317.18 304.736 317.18 304.02C317.18 301.871 318.254 300.667 320.402 300.406C323.007 300.211 325.611 299.918 328.215 299.527C330.819 299.072 333 298.421 334.758 297.574C336.581 296.728 337.492 295.589 337.492 294.156L337.59 188.492C337.59 185.693 336.581 183.674 334.562 182.438C332.609 181.135 330.266 180.289 327.531 179.898C324.797 179.443 322.225 179.15 319.816 179.02C318.449 178.889 317.505 178.629 316.984 178.238C316.529 177.783 316.301 176.839 316.301 175.406C316.301 174.69 316.561 173.681 317.082 172.379C317.668 171.077 318.514 170.426 319.621 170.426H378.801C386.678 170.426 394.133 171.337 401.164 173.16C408.26 174.983 414.022 178.141 418.449 182.633C422.941 187.125 425.188 193.44 425.188 201.578C425.188 208.023 423.69 213.525 420.695 218.082C417.766 222.574 413.924 226.122 409.172 228.727C404.484 231.331 399.504 232.991 394.23 233.707L394.621 233.023C398.723 233.284 403.02 234.033 407.512 235.27C412.004 236.507 416.203 238.46 420.109 241.129C424.081 243.733 427.303 247.249 429.777 251.676C432.251 256.103 433.488 261.669 433.488 268.375C433.488 275.471 431.991 281.591 428.996 286.734C426.001 291.878 422.03 296.109 417.082 299.43C412.134 302.685 406.698 305.094 400.773 306.656C394.914 308.219 389.055 309 383.195 309H320.5ZM357.414 229.508H373.82C378.898 229.508 383.716 228.694 388.273 227.066C392.896 225.374 396.672 222.607 399.602 218.766C402.531 214.924 403.996 209.684 403.996 203.043C403.996 194.124 401.262 187.841 395.793 184.195C390.324 180.549 383.456 178.727 375.188 178.727H357.414V229.508ZM375.773 299.039C379.159 299.039 382.902 298.681 387.004 297.965C391.105 297.249 395.044 295.849 398.82 293.766C402.596 291.617 405.689 288.492 408.098 284.391C410.572 280.224 411.809 274.723 411.809 267.887C411.809 260.465 410.376 254.768 407.512 250.797C404.712 246.76 401.132 243.928 396.77 242.301C392.473 240.608 388.013 239.632 383.391 239.371C378.768 239.046 374.699 238.883 371.184 238.883H357.414V295.426C357.414 295.426 357.609 295.751 358 296.402C358.391 296.988 359.855 297.574 362.395 298.16C364.934 298.746 369.393 299.039 375.773 299.039Z" fill="black"/>
</svg>
